PathFileType	4	(X/Y/Z)	C:/Users/opensim2020/Desktop/walking_exp_matlab/subject02_walking14_straight_02.trc	
DataRate	CameraRate	NumFrames	NumMarkers	Units	OrigDataRate	OrigDataStartFrame	OrigNumFrames	
100.00	100.00	4	41	mm	100.00	915	121	
Frame#	Time	LFHD			RFHD			LBHD			RBHD			C7			T10			CLAV			STRN			RBAK			LSHO			LUPA			LELB			LFRM			LWRA			LWRB			LFIN			RSHO			RUPA			RELB			RFRM			RWRA			RWRB			RFIN			LASI			RASI			LPSI			RPSI			LTHI			LKNE			LTIB			LANK			LHEE			LTOE			RTHI			RKNE			RTIB			RANK			RHEE			RTOE			*39			*40			
		X1	Y1	Z1	X2	Y2	Z2	X3	Y3	Z3	X4	Y4	Z4	X5	Y5	Z5	X6	Y6	Z6	X7	Y7	Z7	X8	Y8	Z8	X9	Y9	Z9	X10	Y10	Z10	X11	Y11	Z11	X12	Y12	Z12	X13	Y13	Z13	X14	Y14	Z14	X15	Y15	Z15	X16	Y16	Z16	X17	Y17	Z17	X18	Y18	Z18	X19	Y19	Z19	X20	Y20	Z20	X21	Y21	Z21	X22	Y22	Z22	X23	Y23	Z23	X24	Y24	Z24	X25	Y25	Z25	X26	Y26	Z26	X27	Y27	Z27	X28	Y28	Z28	X29	Y29	Z29	X30	Y30	Z30	X31	Y31	Z31	X32	Y32	Z32	X33	Y33	Z33	X34	Y34	Z34	X35	Y35	Z35	X36	Y36	Z36	X37	Y37	Z37	X38	Y38	Z38	X39	Y39	Z39	X40	Y40	Z40	X41	Y41	Z41	

106	1.050	-968.98737	-751.26978	1691.08728	-1112.22156	-759.21191	1682.75305	-975.82080	-611.78632	1635.47937	-1118.50330	-607.27576	1626.96936	-1049.79175	-549.64783	1490.74902	-1074.06995	-526.19019	1205.81421	-1039.61096	-695.10364	1429.86584	-1064.15613	-764.28125	1269.34290	-1125.74475	-507.40475	1309.54358	-871.05408	-615.71857	1452.60144	-806.12024	-556.62396	1257.37805	-808.68427	-514.17151	1127.27197	-789.97888	-464.15149	1010.92365	-807.50696	-454.22849	867.08942	-780.85657	-415.25864	898.57605	-780.24023	-385.99554	837.38458	-1233.90784	-619.91412	1475.78967	-1348.69287	-617.01221	1302.77039	-1405.51306	-668.64825	1173.90625	-1421.27051	-765.67804	1099.17908	-1395.65942	-880.15344	1032.59753	-1433.42163	-851.96448	1001.52856	-1424.70251	-921.08722	975.64716	-966.73132	-790.20599	966.50281	-1220.77466	-766.24792	953.14746	-1022.90527	-570.04291	997.15356	-1136.09705	-555.79767	997.49115	-903.99597	-804.42944	664.22260	-948.34814	-843.72198	470.02258	-953.15143	-833.26630	276.74133	-996.44025	-878.13745	63.44824	-1053.52368	-849.13922	36.51001	-976.36530	-1033.31335	33.38087	-1294.64990	-615.04523	661.47723	-1282.72729	-565.26880	458.70645	-1276.09204	-423.47498	331.87216	-1240.04846	-302.83603	181.66177	-1177.00452	-257.74634	158.85272	-1249.87659	-382.32050	34.60422	-1059.29712	-666.16345	1776.31250	-3360.29028	2845.22778	1034.34668 
107	1.060	-966.43335	-763.40759	1691.78491	-1109.67358	-771.50183	1683.09216	-973.15900	-623.92517	1636.02283	-1116.00854	-619.46289	1627.19543	-1047.34265	-562.48834	1491.35010	-1071.83325	-540.07587	1205.64050	-1036.85388	-707.57098	1430.61682	-1060.99951	-777.70758	1270.43616	-1122.76770	-520.71344	1308.89673	-868.43170	-627.71381	1452.95850	-803.05768	-568.28632	1257.82971	-805.77563	-526.16010	1127.66162	-787.80542	-476.48364	1010.61377	-806.63019	-467.88147	867.16296	-779.41461	-428.02161	897.48438	-780.91028	-399.71103	835.56689	-1231.94641	-632.38867	1475.68396	-1344.75549	-628.47668	1301.60742	-1402.79773	-680.34277	1173.22314	-1418.14941	-777.91272	1099.17737	-1392.16846	-892.81824	1033.57654	-1429.94287	-865.04706	1002.33807	-1420.75012	-934.41901	976.43927	-962.30072	-804.64569	967.31110	-1215.47900	-782.16504	952.59253	-1020.38123	-584.38373	998.74384	-1135.39978	-571.72949	997.72656	-902.04901	-818.42859	665.07178	-947.86157	-859.02301	471.57285	-950.31311	-846.06677	278.40427	-996.76471	-881.06311	64.52353	-1053.70801	-850.54108	37.46636	-979.13678	-1036.82397	32.19142	-1293.95105	-635.26862	660.11768	-1284.60583	-589.25659	457.51443	-1277.91321	-444.28162	335.58694	-1241.11621	-319.93958	189.38808	-1177.47900	-275.37964	170.80478	-1248.36536	-384.86368	34.54573	-1056.95886	-678.44330	1776.71582	-3357.37329	2845.91895	1034.53479 
108	1.070	-963.84741	-775.42792	1692.52332	-1107.00122	-783.70758	1683.59558	-971.00317	-635.63910	1636.72986	-1113.66370	-631.71814	1627.76062	-1045.41504	-575.26672	1491.83276	-1069.77649	-553.65216	1205.62390	-1034.11243	-720.42255	1431.55994	-1057.87134	-791.32550	1271.79016	-1120.41321	-533.87787	1308.57397	-866.12811	-639.26764	1453.60571	-800.34766	-581.53656	1258.32642	-803.51306	-538.28986	1127.96594	-785.58063	-490.23096	1010.63458	-805.93561	-482.57510	866.76862	-777.69159	-442.45581	896.34814	-781.32825	-415.03537	833.46497	-1229.78943	-645.35925	1475.59009	-1342.45630	-640.05353	1301.69849	-1399.88611	-691.84082	1172.77258	-1415.02490	-789.74982	1099.05347	-1388.48816	-904.80994	1033.71338	-1426.53284	-877.26129	1002.54059	-1416.82996	-946.76276	976.86493	-957.85266	-818.68115	968.48297	-1210.03320	-797.63354	952.27631	-1018.12115	-598.69775	1000.28589	-1134.68384	-587.26807	998.00415	-900.32642	-832.73987	665.48047	-947.47925	-871.93146	471.99487	-950.10468	-855.01917	278.88361	-996.91595	-883.26111	64.63106	-1053.96631	-851.21484	37.58904	-979.03876	-1038.39819	30.92686	-1293.21069	-656.23749	658.34119	-1286.18018	-613.98889	456.07074	-1279.27112	-466.68372	338.84259	-1242.58875	-339.16367	196.37112	-1178.20642	-294.59406	182.21112	-1247.06506	-390.09433	35.88581	-1054.79407	-690.64514	1777.15454	-3360.44751	2845.29736	1034.29700 
109	1.080	-961.15961	-787.17957	1693.45239	-1104.33081	-795.90582	1684.41028	-968.41882	-647.71741	1637.56396	-1111.25110	-644.12500	1628.20679	-1043.54089	-587.40222	1492.28015	-1067.94409	-566.98480	1205.86133	-1031.71680	-732.71130	1432.23669	-1054.96680	-804.58777	1273.00488	-1118.51611	-547.08368	1308.89185	-864.07574	-651.02380	1454.45935	-797.64325	-592.92371	1259.10547	-800.89478	-551.71948	1128.27783	-783.51929	-504.42230	1010.31165	-804.63690	-498.31805	866.59283	-775.84436	-458.31955	895.10614	-781.36560	-431.70712	831.18036	-1227.85938	-658.55493	1476.26379	-1338.62805	-651.90625	1301.31689	-1397.29932	-703.19153	1172.66211	-1411.58582	-801.25720	1098.74353	-1384.76514	-916.27637	1033.66223	-1422.72253	-888.91327	1002.26398	-1412.71301	-958.24255	976.69464	-953.20099	-832.43579	970.07458	-1204.71252	-812.45050	952.04529	-1016.08325	-612.01758	1001.74280	-1133.70349	-602.15973	998.39514	-898.97003	-848.23962	665.84344	-946.93085	-883.22614	471.69974	-950.38348	-861.29388	279.28885	-997.59772	-883.56116	64.48690	-1054.11047	-851.56427	37.94274	-979.54218	-1039.47876	30.38205	-1292.25647	-677.58319	656.09155	-1287.37744	-639.42371	454.42184	-1280.44080	-490.47568	341.41043	-1243.63794	-359.33252	203.60571	-1178.60901	-313.87302	193.22131	-1245.75525	-399.43573	40.46136	-1052.49829	-702.46289	1777.79578	-3357.54028	2845.93066	1034.32751 
